# xmcd
#
# Track frame offsets: 
#        150
#        15640
#        26467
#        42395
#        50870
#        63655
#        78852
#        97522
#        112077
#        125350
#        144877
#        157407
#        171887
#
# Disc length: 2801 seconds
#
# Revision: 2
# Processed by: cddbd v1.5.2PL0 Copyright (c) Steve Scherf et al.
# Submitted via: ExactAudioCopy v1.3
#
DISCID=aa0aef0d
DTITLE=Hank Williams III - Lovesick, Broke and Driftin'
DYEAR=2002
DGENRE=Country
TTITLE0=7 Months, 39 Days
TTITLE1=Broke, Lovesick and Driftin'
TTITLE2=Cecil Brown
TTITLE3=Lovin' and Huggin'
TTITLE4=One Horse Town
TTITLE5=Mississippi Mud
TTITLE6=Whiskey, Weed and Women
TTITLE7=Trashville
TTITLE8=Walkin' With Sorrow
TTITLE9=5 Shots Of Whiskey
TTITLE10=Nighttime Ramblin' Man
TTITLE11=Callin' Your Name
TTITLE12=Atlantic City
EXTD=YEAR: 2002 ID3G: 2
EXTT0=
EXTT1=
EXTT2=
EXTT3=
EXTT4=
EXTT5=
EXTT6=
EXTT7=
EXTT8=
EXTT9=
EXTT10=
EXTT11=
EXTT12=
PLAYORDER=
